#!OML:ASF H:\Swim 2\Project 1\Capture day 1\Session 1\male.ASF
:FULLY-SPECIFIED
:DEGREES
1121
root 1.62636 13.1785 5.25491 94.8447 -0.695388 -4.4342
lowerback -22.6461 1.18281 -9.18094
upperback -7.74977 3.37424 6.84381
thorax 2.98679 2.02149 13.873
lowerneck -23.0304 -3.6985 -6.95326
upperneck 46.5638 -0.382439 -3.74218
head 25.1617 -1.74789 -0.885078
rclavicle -5.725e-014 4.77083e-015
rhumerus 86.6034 1.78705 -23.7289
rradius 26.9944
rwrist -35.1992
rhand -23.9188 -5.97108
rfingers 7.12502
rthumb 2.55579 -35.9355
lclavicle -5.725e-014 4.77083e-015
lhumerus 89.617 -9.26139 81.2944
lradius 12.864
lwrist -3.91501
lhand -38.518 -12.5498
lfingers 7.12502
lthumb -11.5389 17.1126
rfemur -56.6954 12.5806 11.5574
rtibia 39.9669
rfoot 31.6766 12.1195
rtoes 12.3145
lfemur -53.1838 -4.15273 -24.06
ltibia 45.3693
lfoot 13.7543 7.38928
ltoes -5.76389
1122
root 1.61797 13.1593 5.24448 94.4561 -0.692692 -4.52914
lowerback -22.4076 1.21668 -9.19667
upperback -7.69378 3.40494 6.84302
thorax 2.91873 2.03847 13.8701
lowerneck -22.9942 -3.77752 -7.16003
upperneck 46.3244 -0.618136 -3.3532
head 24.8886 -1.82356 -0.666334
rclavicle -1.59028e-014 3.81667e-014
rhumerus 86.6396 1.76678 -23.8294
rradius 27.0077
rwrist -34.9917
rhand -23.849 -5.61549
rfingers 7.12502
rthumb 2.62318 -35.5791
lclavicle -1.59028e-014 3.81667e-014
lhumerus 89.619 -9.12453 80.7189
lradius 13.0231
lwrist -3.48567
lhand -38.6425 -12.6216
lfingers 7.12502
lthumb -11.6589 17.034
rfemur -56.9637 12.7426 11.4349
rtibia 40.1423
rfoot 31.6231 12.3953
rtoes 11.4119
lfemur -53.4089 -4.07634 -23.8908
ltibia 45.662
lfoot 13.829 6.88105
ltoes -5.46168
1123
root 1.60925 13.1408 5.23408 94.0767 -0.669282 -4.61848
lowerback -22.1645 1.25047 -9.18724
upperback -7.63981 3.42951 6.84175
thorax 2.84974 2.05195 13.8491
lowerneck -22.9679 -3.84802 -7.34333
upperneck 46.059 -0.832999 -2.99919
head 24.6036 -1.89027 -0.469751
rclavicle 6.99722e-014 9.38264e-014
rhumerus 86.6724 1.74475 -23.9129
rradius 27.0035
rwrist -34.7228
rhand -23.7609 -5.26639
rfingers 7.12502
rthumb 2.70825 -35.2289
lclavicle 6.99722e-014 9.38264e-014
lhumerus 89.6129 -8.98811 80.2468
lradius 13.1396
lwrist -3.19228
lhand -38.7437 -12.7274
lfingers 7.12502
lthumb -11.7565 16.9227
rfemur -57.2533 12.889 11.3421
rtibia 40.3421
rfoot 31.5896 12.6923
rtoes 10.4618
lfemur -53.6684 -3.99076 -23.701
ltibia 46.0088
lfoot 13.9316 6.2724
ltoes -5.15777
1124
root 1.60031 13.123 5.2233 93.7064 -0.62678 -4.70078
lowerback -21.9177 1.28543 -9.15264
upperback -7.588 3.45001 6.83906
thorax 2.77965 2.06298 13.8093
lowerneck -22.9599 -3.88813 -7.47886
upperneck 45.7683 -0.982903 -2.72027
head 24.308 -1.93341 -0.31115
rclavicle -5.08889e-014 1.35174e-014
rhumerus 86.7057 1.71597 -23.9815
rradius 26.9691
rwrist -34.3789
rhand -23.6336 -4.96891
rfingers 7.12502
rthumb 2.83124 -34.9299
lclavicle -5.08889e-014 1.35174e-014
lhumerus 89.6005 -8.84089 79.7245
lradius 13.2502
lwrist -2.93604
lhand -38.8868 -12.8304
lfingers 7.12502
lthumb -11.8945 16.8118
rfemur -57.5671 13.0215 11.2719
rtibia 40.571
rfoot 31.5791 12.9869
rtoes 9.50005
lfemur -53.9623 -3.90056 -23.4935
ltibia 46.4149
lfoot 14.0769 5.59236
ltoes -4.76118
1125
root 1.59136 13.1058 5.212 93.342 -0.559421 -4.78152
lowerback -21.6699 1.3265 -9.08768
upperback -7.53862 3.47238 6.83804
thorax 2.70787 2.07472 13.7529
lowerneck -22.9763 -3.89671 -7.54325
upperneck 45.4766 -1.05406 -2.56132
head 24.0261 -1.94968 -0.216994
rclavicle -1.59028e-015 -3.49861e-014
rhumerus 86.7345 1.68262 -24.0238
rradius 26.9062
rwrist -33.9873
rhand -23.4992 -4.72952
rfingers 7.12502
rthumb 2.96097 -34.6887
lclavicle -1.59028e-015 -3.49861e-014
lhumerus 89.5762 -8.68312 79.1294
lradius 13.3775
lwrist -2.65685
lhand -39.0313 -12.9305
lfingers 7.12502
lthumb -12.0338 16.7036
rfemur -57.9027 13.1457 11.2298
rtibia 40.8312
rfoot 31.6003 13.2788
rtoes 8.63031
lfemur -54.2899 -3.79845 -23.2662
ltibia 46.8841
lfoot 14.2807 4.87213
ltoes -4.22628
1126
root 1.58257 13.0891 5.20003 92.9758 -0.46671 -4.86175
lowerback -21.4176 1.37624 -8.99542
upperback -7.48942 3.50069 6.8418
thorax 2.63351 2.08933 13.6861
lowerneck -23.0246 -3.87094 -7.52326
upperneck 45.1957 -1.0375 -2.54392
head 23.7693 -1.93692 -0.198429
rclavicle 1.90833e-014 4.92986e-014
rhumerus 86.749 1.64582 -24.0609
rradius 26.8212
rwrist -33.5176
rhand -23.3313 -4.55697
rfingers 7.12502
rthumb 3.12316 -34.5138
lclavicle 1.90833e-014 4.92986e-014
lhumerus 89.5371 -8.51853 78.5077
lradius 13.5278
lwrist -2.32944
lhand -39.1198 -13.0552
lfingers 7.12502
lthumb -12.1191 16.5738
rfemur -58.2569 13.2675 11.2137
rtibia 41.1297
rfoot 31.6549 13.5709
rtoes 7.81088
lfemur -54.6397 -3.68425 -23.0217
ltibia 47.409
lfoot 14.5569 4.14896
ltoes -3.55499
1127
root 1.57423 13.0728 5.18687 92.5999 -0.339129 -4.94122
lowerback -21.1545 1.43768 -8.8678
upperback -7.43956 3.537 6.85591
thorax 2.55375 2.10796 13.6105
lowerneck -23.0682 -3.8489 -7.49421
upperneck 44.9269 -1.01676 -2.55574
head 23.5281 -1.92423 -0.197461
rclavicle -2.06736e-014 -4.92986e-014
rhumerus 86.7404 1.60148 -24.0559
rradius 26.7229
rwrist -33.0064
rhand -23.1492 -4.3953
rfingers 7.12502
rthumb 3.29901 -34.3495
lclavicle -2.06736e-014 -4.92986e-014
lhumerus 89.4795 -8.34757 77.8789
lradius 13.7006
lwrist -1.9335
lhand -39.1451 -13.238
lfingers 7.12502
lthumb -12.1436 16.3895
rfemur -58.6224 13.3947 11.2318
rtibia 41.4716
rfoot 31.7342 13.8726
rtoes 7.041
lfemur -54.9987 -3.55349 -22.7553
ltibia 47.9794
lfoot 14.8931 3.45915
ltoes -2.69981
1128
root 1.56582 13.0558 5.17343 92.2298 -0.250988 -5.04095
lowerback -20.9175 1.5018 -8.7874
upperback -7.38649 3.58976 6.86562
thorax 2.48224 2.1353 13.5645
lowerneck -23.1023 -3.83983 -7.47125
upperneck 44.6752 -1.00865 -2.57791
head 23.3055 -1.91801 -0.20476
rclavicle 3.18055e-015 2.3059e-014
rhumerus 86.6373 1.52643 -23.8564
rradius 26.7385
rwrist -32.5766
rhand -22.9838 -4.24166
rfingers 7.12502
rthumb 3.45872 -34.1933
lclavicle 3.18055e-015 2.3059e-014
lhumerus 89.3985 -8.17568 77.2856
lradius 13.8877
lwrist -1.47663
lhand -39.1038 -13.483
lfingers 7.12502
lthumb -12.1038 16.147
rfemur -59.0292 13.5395 11.2012
rtibia 41.8664
rfoot 31.8261 14.2077
rtoes 6.27223
lfemur -55.3642 -3.3923 -22.549
ltibia 48.5738
lfoot 15.2741 2.82096
ltoes -1.73064
1129
root 1.5571 13.0374 5.16009 91.8673 -0.233189 -5.16621
lowerback -20.7155 1.56372 -8.78932
upperback -7.32805 3.65984 6.86647
thorax 2.42292 2.17204 13.5655
lowerneck -23.1349 -3.8435 -7.4541
upperneck 44.4407 -1.01192 -2.61095
head 23.1034 -1.91803 -0.220358
rclavicle -2.06736e-014 -9.22361e-014
rhumerus 86.4871 1.4487 -23.5953
rradius 26.7696
rwrist -32.0839
rhand -22.8153 -4.02529
rfingers 7.12502
rthumb 3.62151 -33.9743
lclavicle -2.06736e-014 -9.22361e-014
lhumerus 89.2975 -7.99943 76.7173
lradius 14.0769
lwrist -0.945092
lhand -39.0231 -13.7909
lfingers 7.12502
lthumb -12.0259 15.8435
rfemur -59.48 13.7125 11.0833
rtibia 42.3143
rfoot 31.9112 14.5592
rtoes 5.47048
lfemur -55.7259 -3.19302 -22.4407
ltibia 49.1752
lfoot 15.6759 2.24245
ltoes -0.656188
1130
root 1.5479 13.0174 5.14755 91.5096 -0.309916 -5.31871
lowerback -20.5479 1.61933 -8.89689
upperback -7.26572 3.74604 6.85284
thorax 2.37264 2.21822 13.6205
lowerneck -23.164 -3.85762 -7.44534
upperneck 44.2285 -1.02441 -2.64936
head 22.9246 -1.92353 -0.240192
rclavicle -5.08889e-014 5.64548e-014
rhumerus 86.292 1.38575 -23.3123
rradius 26.8049
rwrist -31.4748
rhand -22.6507 -3.75169
rfingers 7.12502
rthumb 3.78045 -33.6979
lclavicle -5.08889e-014 5.64548e-014
lhumerus 89.1676 -7.81994 76.1752
lradius 14.2555
lwrist -0.373302
lhand -38.9463 -14.1241
lfingers 7.12502
lthumb -11.9518 15.5147
rfemur -59.9689 13.9214 10.85
rtibia 42.8118
rfoot 31.9742 14.9134
rtoes 4.66611
lfemur -56.0682 -2.95658 -22.4555
ltibia 49.7661
lfoot 16.104 1.71786
ltoes 0.517379
1131
root 1.53844 12.9962 5.13653 91.1408 -0.463828 -5.49086
lowerback -20.3907 1.6703 -9.08638
upperback -7.19913 3.8435 6.82735
thorax 2.32235 2.27143 13.7149
lowerneck -23.1892 -3.88216 -7.44925
upperneck 44.0345 -1.05207 -2.67714
head 22.7644 -1.93543 -0.256092
rclavicle -9.06458e-014 -5.96354e-014
rhumerus 86.0576 1.33629 -22.9931
rradius 26.8477
rwrist -30.7772
rhand -22.5149 -3.46974
rfingers 7.12502
rthumb 3.91152 -33.4136
lclavicle -9.06458e-014 -5.96354e-014
lhumerus 89.0034 -7.64249 75.7231
lradius 14.402
lwrist 0.153718
lhand -38.8796 -14.4413
lfingers 7.12502
lthumb -11.8875 15.2012
rfemur -60.4642 14.1658 10.5238
rtibia 43.3415
rfoot 32.0181 15.2537
rtoes 3.88957
lfemur -56.3782 -2.69033 -22.5738
ltibia 50.3431
lfoot 16.582 1.23616
ltoes 1.79206
1132
root 1.52885 12.9743 5.12745 90.7497 -0.677779 -5.67424
lowerback -20.228 1.71653 -9.33431
upperback -7.12676 3.9456 6.79184
thorax 2.26915 2.3278 13.8336
lowerneck -22.9154 -3.90647 -7.57744
upperneck 44.0063 -1.14471 -2.57433
head 22.1787 -1.95767 -0.25597
rclavicle -5.08889e-014 -6.83819e-014
rhumerus 85.7977 1.30565 -22.6869
rradius 26.8796
rwrist -29.9562
rhand -22.3889 -3.21004
rfingers 7.12502
rthumb 4.0332 -33.1516
lclavicle -5.08889e-014 -6.83819e-014
lhumerus 88.7995 -7.46365 75.3599
lradius 14.51
lwrist 0.575227
lhand -38.871 -14.6929
lfingers 7.12502
lthumb -11.8792 14.9501
rfemur -60.94 14.4429 10.1256
rtibia 43.8834
rfoot 32.0574 15.5589
rtoes 3.18497
lfemur -56.6421 -2.40649 -22.7724
ltibia 50.9066
lfoot 17.1226 0.793818
ltoes 3.1781
1133
root 1.51962 12.9523 5.1202 90.3296 -0.892232 -5.85268
lowerback -20.0432 1.76108 -9.56935
upperback -7.05063 4.03999 6.75743
thorax 2.21119 2.37989 13.9417
lowerneck -22.9458 -3.92401 -7.57613
upperneck 43.8261 -1.1687 -2.58995
head 22.0507 -1.96659 -0.265602
rclavicle -6.20208e-014 -3.57812e-014
rhumerus 85.5133 1.29044 -22.3557
rradius 26.9126
rwrist -29.0975
rhand -22.3291 -2.95547
rfingers 7.12502
rthumb 4.09102 -32.8959
lclavicle -6.20208e-014 -3.57812e-014
lhumerus 88.5492 -7.2873 75.2166
lradius 14.5513
lwrist 0.732189
lhand -38.8987 -14.8561
lfingers 7.12502
lthumb -11.906 14.7853
rfemur -61.3687 14.7428 9.72274
rtibia 44.4123
rfoot 32.0987 15.8266
rtoes 2.52884
lfemur -56.8642 -2.12136 -22.9831
ltibia 51.4697
lfoot 17.7236 0.380531
ltoes 4.68371
1134
root 1.51109 12.9307 5.11485 89.8764 -1.07407 -6.01612
lowerback -19.8307 1.80777 -9.7598
upperback -6.9688 4.12477 6.73077
thorax 2.15088 2.42589 14.027
lowerneck -22.9794 -3.93883 -7.57007
upperneck 43.6453 -1.19887 -2.58883
head 21.9243 -1.97494 -0.268747
rclavicle 1.74931e-014 -6.36111e-015
rhumerus 85.1986 1.27804 -21.9923
rradius 26.9465
rwrist -28.2464
rhand -22.3206 -2.71837
rfingers 7.12502
rthumb 4.09923 -32.6587
lclavicle 1.74931e-014 -6.36111e-015
lhumerus 88.2709 -7.11356 75.3069
lradius 14.5135
lwrist 0.632839
lhand -38.9159 -14.9046
lfingers 7.12502
lthumb -11.9226 14.7359
rfemur -61.7349 15.055 9.35467
rtibia 44.912
rfoot 32.154 16.0451
rtoes 1.9035
lfemur -57.0489 -1.85455 -23.1618
ltibia 52.0407
lfoot 18.3786 -0.0218611
ltoes 6.20455
1135
root 1.50397 12.9098 5.11106 89.3888 -1.15927 -6.14298
lowerback -19.5849 1.85918 -9.8362
upperback -6.8802 4.18883 6.72499
thorax 2.09549 2.45825 14.0598
lowerneck -23.0218 -3.94676 -7.55639
upperneck 43.4483 -1.22921 -2.57242
head 21.7894 -1.98014 -0.264946
rclavicle -2.54444e-014 -4.92986e-014
rhumerus 84.851 1.25529 -21.5633
rradius 26.9885
rwrist -27.4756
rhand -22.3732 -2.4768
rfingers 7.12502
rthumb 4.04843 -32.4181
lclavicle -2.54444e-014 -4.92986e-014
lhumerus 87.982 -6.93495 75.6616
lradius 14.3796
lwrist 0.254919
lhand -38.8958 -14.8695
lfingers 7.12502
lthumb -11.9031 14.7722
rfemur -62.0203 15.3546 9.0966
rtibia 45.3687
rfoot 32.1957 16.2131
rtoes 1.22775
lfemur -57.2082 -1.63221 -23.2361
ltibia 52.6311
lfoot 19.0499 -0.443453
ltoes 7.73481
